<?xml version="1.0" encoding="UTF-8" standalone="no"?>
<!-- Created with Inkscape (http://www.inkscape.org/) -->

<svg
   width="197.64374mm"
   height="129.68121mm"
   viewBox="0 0 197.64374 129.68121"
   version="1.1"
   id="svg1"
   xml:space="preserve"
   xmlns="http://www.w3.org/2000/svg"
   xmlns:svg="http://www.w3.org/2000/svg"><defs
     id="defs1" /><g
     id="layer1"
     transform="translate(-6.7603054,-122.87281)"><path
       style="fill:#fff;stroke:none"
       d="m 143.02072,123.41786 v 0.26458 c 4.55568,-0.306 9.21319,-1.14885 13.75833,-0.0318 2.78366,0.68409 3.59657,3.46119 6.61458,3.47142 l -2.09951,-0.69575 -2.92757,-2.62869 -5.55625,-0.92481 -9.78958,0.54509 m -10.05417,6.08541 c -0.76239,0.66673 -2.27442,1.7871 -2.26611,2.9043 0.014,1.88415 4.26374,1.0542 5.15448,0.3736 1.68859,-1.29023 -0.39263,-2.37228 0.14209,-3.80706 0.91436,-2.45344 4.33673,-4.4864 6.75912,-5.02709 -0.79581,-0.30103 -1.61708,0.0559 -2.38125,0.4226 -1.7903,0.85924 -4.53753,2.75691 -4.93031,4.86907 -0.1847,0.99324 1.07737,1.93425 0.50834,2.82467 -0.63982,1.0012 -2.45325,1.19971 -3.51553,1.13796 -0.50405,-0.0293 -1.30928,-0.12272 -1.29474,-0.80478 0.0246,-1.1556 1.70349,-1.64754 1.82391,-2.89327 m 30.69167,-2.91041 v 0.26454 c 2.81084,0.18881 6.0479,1.35113 8.20208,3.175 l -6.87917,-1.05833 v 0.26458 c 1.93784,0.23665 3.8606,1.32083 5.82084,1.28984 1.3239,-0.0209 2.70022,-1.04922 3.95282,-0.13841 1.40329,1.02039 1.60343,2.55342 1.60343,4.14024 0,2.84323 -0.60379,5.63875 -0.79375,8.46666 h -0.26459 c 0,-2.14032 -0.28389,-5.67304 -2.01376,-7.23807 -0.55259,-0.49992 -1.54411,-0.42964 -2.21957,-0.72515 -2.66652,-1.16661 -5.48466,-2.44154 -8.46667,-2.35063 -2.86436,0.0873 -5.6238,1.11672 -8.46666,1.3021 -1.47107,0.0959 -3.09014,-0.12897 -4.49792,-0.56347 -0.98856,-0.30512 -1.84987,-0.90778 -2.90552,-0.49609 -2.39299,0.93322 -3.64791,3.7996 -5.29656,5.5734 -0.1802,-2.25095 -2.93263,-3.74646 -2.23059,-6.08542 0.75039,-2.50006 3.65325,-3.50574 5.93475,-3.96875 5.63903,-1.14439 11.76928,0.26458 17.4625,0.26458 v -0.26458 c -5.27645,0 -10.62173,-1.17149 -15.875,-0.56347 -2.43417,0.28174 -5.11762,0.76284 -6.83874,2.68503 -1.17711,1.31462 -1.49244,3.2182 -0.54754,4.75761 0.51906,0.84563 1.58101,1.60944 1.69897,2.64583 0.12194,1.07135 -0.86835,2.32812 -1.41602,3.175 -0.403,0.62317 -0.89548,1.50735 -1.64384,1.76021 -0.77273,0.2611 -2.42549,-0.52427 -2.26856,-1.4846 0.23667,-1.44836 2.76354,-1.47778 3.15418,-2.93614 0.24306,-0.9074 -0.64206,-1.40708 -1.39886,-1.53116 -1.43455,-0.23517 -3.21144,-0.17405 -4.49792,0.48752 l 1.32292,1.85209 h -4.7625 v 0.26458 h 5.02708 l -1.32292,-2.11667 c 1.26946,-0.23942 2.67661,-0.43741 3.96752,-0.22293 0.63042,0.10474 1.44946,0.49349 1.10733,1.27024 -0.56385,1.28017 -2.64584,1.38817 -3.09047,2.69728 -0.4257,1.25335 1.46471,2.32063 2.51354,2.24284 0.6714,-0.0498 1.11702,-0.54412 1.5875,-0.96034 -0.76922,1.26683 -1.8596,2.07015 -2.78425,3.19092 -0.71278,0.86396 -1.09425,2.08794 -2.015,2.76834 -1.31268,0.97001 -3.70102,0.68633 -5.25492,1.04362 -0.95267,0.21906 -1.91298,0.67837 -2.91041,0.58062 -1.65216,-0.16191 -3.15727,-1.08222 -4.7625,-1.41356 -1.64516,-0.33958 -3.59179,-0.033 -5.02709,-1.02895 -2.47016,-1.71394 -2.92098,-4.64836 -4.91929,-6.655 -0.64072,-0.6434 -1.55358,-1.41496 -2.48781,-1.53238 -0.47971,-0.0603 -0.96564,0.20357 -1.43317,0.0343 -1.10949,-0.40172 -3.46502,-4.03267 -4.68043,-1.71122 -0.20901,0.3992 -0.34394,0.86327 -0.50222,1.28372 l 1.05834,-1.85208 c 1.56121,0.46814 3.48952,1.86235 4.11207,3.43958 0.6519,1.65158 0.56697,3.41888 1.44418,5.02709 h 0.26458 l -0.18006,-3.175 -0.0845,-2.64584 c 3.44457,1.5657 3.70117,5.22029 6.38553,7.54798 1.62139,1.40595 3.53504,1.17662 5.52072,1.52135 1.44961,0.25168 2.78411,0.95742 4.23333,1.24942 v 0.26459 l -5.55625,-0.47772 -5.02708,0.7423 v 0.26458 l 5.18264,-0.5757 6.45903,0.2952 3.43958,-0.92236 3.43958,-0.64922 -1.85208,3.43958 -3.175,2.87 -8.73125,5.82695 -2.38125,2.41555 c 2.78171,-0.7473 5.11463,-2.73588 7.40833,-4.38889 1.98605,-1.43129 4.31714,-2.65783 6.08052,-4.35828 2.4304,-2.34369 3.81627,-5.48148 5.75714,-8.18616 0.95675,-1.33327 2.28388,-2.32518 3.18724,-3.70417 1.84372,-2.81442 3.5979,-7.83154 7.2001,-8.53893 0.56182,-0.11033 1.25681,-0.49248 1.83494,-0.34053 0.77215,0.20293 1.02891,1.1593 1.44908,1.73571 1.19271,1.63621 2.10944,3.30342 3.1799,5.02709 0.81574,1.31351 1.95861,1.70315 3.04516,2.68748 2.07208,1.87713 3.69428,4.14073 6.36592,5.25002 l 0.26459,-0.26459 c -0.25577,-0.76728 -2.85072,-4.08612 -1.32292,-3.70416 l -0.26458,-0.79375 h -0.52917 c -0.41252,1.61716 0.71291,2.9416 1.5875,4.23333 l -5.67017,-4.94133 -2.19384,-1.46135 -2.53558,-4.18065 -2.56499,-3.70417 c 1.52485,-0.0962 2.98891,0.48062 4.49791,0.38341 4.83218,-0.31134 10.87179,-3.08449 15.29316,0.38707 1.48318,1.16456 1.59552,3.95402 2.37879,5.57952 1.05199,2.18315 2.73462,3.97401 3.79115,6.08542 0.36961,0.73865 0.38471,1.61781 0.72638,2.38125 0.58308,1.3029 1.47353,2.45372 2.15219,3.70416 -2.6366,-1.26287 -5.74713,-2.00654 -8.20208,-3.5731 -2.82131,-1.80033 -5.41125,-4.94403 -8.73125,-5.68731 0.71932,1.04425 2.65305,1.64518 3.70416,2.49516 3.05925,2.47382 5.93932,3.97492 9.525,5.5146 1.799,0.77248 3.61706,1.82773 5.55625,2.19507 2.68141,0.50793 5.50802,-0.21446 8.20209,0.22415 3.83411,0.62422 7.43746,2.25764 11.37708,2.27102 v -0.26459 c -3.51917,-0.043 -7.64404,-1.54162 -10.01375,-4.23456 -1.36393,-1.54998 -2.08475,-3.58633 -3.23134,-5.29044 -0.93358,-1.38753 -2.19215,-2.42356 -2.89449,-3.96875 h -0.26459 c 0.49808,1.83087 1.99097,2.96964 3.03047,4.49792 2.05545,3.02197 2.83222,5.92004 6.49453,7.40833 v 0.26459 c -2.4736,-0.49674 -4.86522,-1.23145 -7.40833,-1.30209 -1.97947,-0.055 -4.19689,0.79948 -6.06827,-0.29765 -1.11618,-0.65441 -1.87911,-2.31262 -2.45842,-3.42735 -1.59097,-3.06147 -0.88047,-6.26757 -0.50344,-9.525 0.26579,-2.29638 0.29888,-4.56858 0.29888,-6.87916 l 4.98543,5.02708 1.36457,3.96875 h 0.26458 c -0.25626,-1.95724 -0.96589,-4.01943 -2.23058,-5.55502 -1.58041,-1.91896 -3.57877,-3.19228 -5.04178,-5.2929 -0.49693,-0.71352 -2.78387,-2.21803 -2.64462,-3.06108 0.19952,-1.20794 2.47508,-0.90767 3.3024,-0.90767 v -0.26458 c -1.35807,0 -4.62764,-0.23148 -3.56207,2.08728 0.13274,0.28887 0.46591,0.59946 0.65165,0.82314 l -3.96875,-1.51155 -6.08541,-1.66345 m 13.22916,0.52916 v 0.26459 c 2.59041,0.34093 6.76763,1.933 6.08542,5.02708 l 0.26458,0.26458 c 1.43278,-0.69193 1.16555,-3.11026 3.43959,-2.72423 1.20178,0.20401 3.25987,1.41139 3.44815,2.72423 0.0933,0.65046 -0.65062,1.37981 -0.28173,1.9905 0.41726,0.69075 4.60563,0.63483 2.91899,2.24284 v 0.26458 c 1.03198,-0.49915 1.08614,-1.41209 -0.0171,-1.9856 -0.88441,-0.45973 -1.92913,-0.39499 -2.89326,-0.39565 0.24996,-0.73836 0.8383,-1.57555 0.61,-2.38125 -0.76389,-2.69599 -4.70604,-3.7513 -6.43084,-1.5875 -1.92846,-1.92193 -4.34894,-3.50696 -7.14375,-3.70417 m -49.74166,7.67292 c -1.20272,2.071 -0.32524,4.10009 2.11666,4.49792 v -0.26459 c -2.43996,-0.74044 -2.38474,-2.41537 -1.85208,-4.49791 -1.72555,-0.4144 -3.49991,0.11401 -4.98666,-1.18817 -2.42707,-2.12576 1.0596,-4.55801 3.13458,-4.82619 0.97363,-0.12584 2.12852,0.0703 2.85407,0.77903 0.42268,0.41288 0.58209,1.17219 1.17102,1.38907 0.46385,0.17082 1.06907,-0.0372 1.53116,-0.12249 v -0.26459 l -1.85209,0.26459 c -0.16474,-3.45774 -5.24986,-2.64976 -7.06903,-0.93216 -1.32555,1.25153 -1.33506,3.12711 0.19599,4.21006 0.4672,0.33047 1.0382,0.52227 1.58138,0.68594 1.05531,0.31797 2.09339,0.2005 3.175,0.26949 m 35.71875,-6.08542 v 0.26459 h 1.85208 l -1.85208,-0.26459 m -30.77987,0.61736 0.1764,0.0882 -0.1764,-0.0882 m 51.68195,2.02848 v 1.05833 h -0.26458 l 0.26458,-1.05833 m -35.45417,2.11666 -2.38125,0.79375 c 0.49618,-0.99391 1.38869,-1.39687 2.38125,-0.79375 m 21.96042,1.5875 2.64583,0.52917 c 1.94013,3.3175 1.94531,6.38227 2.38125,10.05417 h -0.26458 l -4.079,-7.9375 -0.6835,-2.64584 m 25.92917,5.82084 v -0.26459 c -1.07129,-0.32415 -1.83547,-1.23019 -2.91042,-1.49685 -0.92299,-0.22898 -2.32749,0.6169 -3.09539,0.16659 -1.38355,-0.81135 1.86016,-1.75577 2.30164,-1.84474 -0.92079,-0.35201 -4.09492,0.60452 -2.77935,1.9905 0.81275,0.85624 2.09619,-0.16987 3.04393,-0.0686 1.26648,0.13536 2.15008,1.30422 3.43959,1.51768 m -113.241665,2.91041 c 0.7249,2.32788 1.72089,5.37463 3.96875,6.61459 l -3.175,-6.08542 c 2.42311,-0.45039 4.54656,-1.5557 6.87917,-2.29183 1.03876,-0.32783 2.17049,-0.21268 3.174998,-0.60021 l 2.6446,-1.03874 c 0.43714,-0.17136 0.91502,-0.6235 1.41602,-0.45934 1.45122,0.47548 1.65713,3.25663 2.306527,4.39012 1.78078,3.10829 4.13291,6.95206 7.12659,8.99583 -0.61201,-2.74201 -2.32948,-5.34215 -3.38201,-7.93627 -0.34609,-0.853 0.33932,-1.57889 -0.0343,-2.38737 -0.57426,-1.24266 -3.00418,-2.32387 -1.61077,-3.69927 v -0.26459 l -1.32299,0.52918 c -1.214087,-2.48869 -3.108777,-0.16449 -4.762487,0.45567 -2.63746,0.98907 -5.298668,1.45809 -7.937498,2.46699 -1.64677,0.62961 -3.49815,1.68542 -5.29167,1.31067 m 23.547905,8.46667 c -1.40495,-1.32247 -2.47803,-2.93797 -3.58902,-4.49792 -1.24431,-1.74716 -2.46057,-3.19961 -3.094157,-5.29166 -0.2654,-0.87631 -2.17294,-3.10311 -0.70188,-3.69193 1.346627,-0.539 2.318927,1.8646 2.960637,2.63237 0.46808,0.56002 1.39561,1.13785 1.55688,1.88761 0.14098,0.65537 -0.38877,1.17229 -0.15924,1.85331 0.81851,2.42851 2.36056,4.6221 3.02678,7.10822 m 89.95834,-11.64167 2.11667,-1.46133 2.91041,-0.12617 c -1.89194,-0.91365 -3.97035,-0.0973 -5.02708,1.5875 m 5.29167,-1.5875 v 0.26459 c 1.44295,0.61189 2.64704,2.02245 0.78885,3.0819 -1.70101,0.96984 -3.90309,1.15012 -5.81594,1.15143 v 0.26458 c 2.10162,0 4.53797,-0.0389 6.33285,-1.29964 1.88366,-1.32306 0.48678,-3.16472 -1.30576,-3.46286 m -92.86876,0.79375 0.26459,4.49792 h -0.26459 l -0.52916,-4.49792 h 0.52916 m 75.40626,2.38125 c 0.23409,1.87826 2.2204,1.5875 3.70416,1.5875 v -0.26458 c -1.35523,-9.2e-4 -2.51519,0.0353 -3.43958,-1.05833 l 6.61458,0.79375 -2.91041,0.52916 v 0.26459 h 3.96875 v -0.26459 h -0.79375 v -0.26458 l 0.79375,-0.26458 v -0.52917 l -7.9375,-0.52917 m 8.20208,1.5875 v 0.26459 h 3.70417 l -3.70417,-0.26459 m -128.058335,5.55625 v 0.26459 l 1.81656,0.0625 2.15219,-1.38538 2.38125,3.175 v 0.26458 c -3.31869,2.2395 -4.70675,6.7138 -7.70844,9.41109 -2.18693,1.96516 -5.32246,2.82996 -7.90197,4.14758 -5.4601,2.78904 -10.34174,5.74626 -16.40417,7.07883 v 0.26459 c 5.883,-0.41508 11.285,-4.25588 16.40417,-6.81548 2.61644,-1.30822 5.98871,-2.4068 8.20086,-4.33745 1.85121,-1.61563 3.41727,-3.9717 4.71228,-6.04499 0.85843,-1.37437 2.08454,-3.15615 3.75561,-3.43958 l -0.26459,-0.79375 6.61582,-5.65915 4.49669,-1.22002 c -1.37092,-0.65513 -3.78886,0.21824 -4.99156,1.03873 -0.56274,0.38391 -0.97021,1.09962 -1.62793,1.33028 -0.67771,0.23768 -1.27814,-0.26202 -1.84718,-0.55245 -0.91601,-0.46755 -2.66197,-1.28332 -3.70295,-1.03382 -1.31101,0.31422 -1.49109,1.69158 -2.27835,2.54782 -1.02745,1.11749 -2.33217,1.69052 -3.80829,1.69652 m 6.61459,1.85209 0.26458,-3.70417 h -0.26458 l 0.26458,1.85208 -2.64583,-1.32291 1.5875,-2.38125 0.52916,1.85208 h 0.26459 l -0.26459,-2.11667 c 1.14337,0.17142 3.55515,0.53188 3.94058,1.85577 0.18401,0.63203 -0.36388,1.05169 -0.7717,1.42825 -0.93347,0.86192 -1.79439,1.92503 -2.90429,2.53682 m 9.78958,-5.82084 -1.05833,7.9375 h 0.52916 c 0,-2.56171 -0.16912,-5.34139 1.05834,-7.67291 l 2.07624,3.96875 0.41402,2.64583 1.21391,2.64583 h 0.26458 l -1.17225,-2.91041 -1.209,-3.70417 v -0.26458 l 0.52917,-1.05834 h -0.26459 v 0.79375 l -2.38125,-2.38125 m 2.64584,0.79375 0.26458,0.26459 -0.26458,-0.26459 m -39.15834,5.29167 c -1.88202,-0.25919 -2.72559,1.64793 -3.77766,2.91042 -0.73954,0.88744 -1.5343,1.59825 -2.04317,2.64583 -0.67138,-0.36211 -1.34648,-0.8848 -2.11667,-1.00076 -0.90398,-0.13612 -1.73789,0.27953 -2.64583,-0.002 -1.56993,-0.48759 -2.85019,-2.15564 -4.49792,-2.32982 -1.05148,-0.11115 -1.77039,0.79341 -2.64583,1.20411 -0.59487,0.27907 -1.26646,0.29172 -1.85208,0.59898 -1.85775,0.97473 -3.01357,3.80642 -5.02709,4.30314 -1.9746,0.48715 -2.77851,-1.57585 -3.8536,-2.66421 -0.54033,-0.54697 -1.48783,-0.89448 -2.23181,-1.03627 -2.73603,-0.52145 -4.7286396,2.65006 -6.8791696,3.83769 v 0.26458 c 2.22198,-0.6663 3.7937596,-3.60729 6.0854196,-3.76909 2.05587,-0.14514 2.62018,1.42453 3.79358,2.62501 0.54842,0.56107 1.31635,0.85518 2.02725,1.14408 l -1.32292,1.05833 0.52917,0.52917 c -2.02643,2.96828 -6.68688,5.49521 -10.0541696,6.61458 v 0.26459 l 5.2916696,-2.47067 8.88681,-7.58473 3.21543,-2.83936 1.92068,-0.61002 2.09461,-0.93951 1.13796,2.53804 3.64659,5.82083 2.39718,-2.38125 2.93614,-3.70417 3.66252,-4.7625 1.32291,0.26459 3.1064,-2.20731 1.65732,-1.28005 2.11545,0.87091 1.5826,-0.38951 1.8729,1.05588 3.95773,-2.56008 4.49302,1.59974 c -0.99031,-0.87175 -3.71833,-2.46539 -5.02586,-1.83371 -1.1099,0.53621 -1.79378,2.31795 -3.17132,2.29305 -0.80841,-0.0146 -1.13511,-0.92423 -1.87291,-1.10488 -0.76203,-0.18656 -1.27753,0.61715 -1.99173,0.51079 -0.74021,-0.11023 -1.11658,-0.92754 -1.9611,-0.84397 -0.89315,0.0884 -1.45873,0.94671 -2.11667,1.45032 -1.03206,0.78998 -2.00347,0.65005 -2.64583,1.90965 m 24.87083,-2.91042 c 1.11138,0.54879 1.52859,1.14157 1.5875,2.38125 -0.80347,-0.55969 -1.77794,-1.34111 -1.5875,-2.38125 m -5.82083,0.52917 v 0.26458 h 0.79375 l -0.79375,-0.26458 m 70.908335,0 c -1.35821,4.52933 -5.96426,7.06787 -9.525,9.63402 -2.19298,1.58043 -4.35622,3.36362 -6.87917,4.3889 2.9431,-3.84618 7.70661,-5.20582 11.37585,-8.06368 2.14455,-1.67032 2.71759,-4.39994 5.02832,-5.95924 m -43.920835,0.79375 -0.26458,2.11667 h 0.26458 l 0.26459,-1.85209 h 0.26458 c 0.88351,2.17774 2.0378,4.56113 4.233328,5.68854 0.69486,0.35681 1.38891,0.22176 2.11667,0.40791 0.91269,0.23346 1.74767,0.75969 2.64583,1.0473 v 0.52917 c -2.6632,0.5872 -5.68332,1.83393 -7.916668,3.41631 -0.71464,0.50633 -1.12888,1.28268 -1.87903,1.76021 -1.84282,1.17312 -4.07907,1.62894 -6.0793,2.44617 -1.62094,0.66227 -3.31117,3.09875 -5.26962,2.30532 -1.13607,-0.46028 -0.63227,-1.88367 -1.09753,-2.77935 -0.5399,-1.03941 -1.69966,-1.67748 -2.3641,-2.65074 h -0.26458 c 0.4162,1.32958 1.65361,1.75157 2.28326,2.92633 0.54468,1.01625 0.0333,2.65656 1.43806,3.02311 2.20594,0.57564 3.90735,-1.94912 5.80368,-2.59807 3.14173,-1.07511 5.7471,-2.70836 8.73125,-4.06918 1.712248,-0.78081 3.653018,-1.06663 5.291668,-2.0101 2.518247,-1.44991 4.061277,-3.86297 6.879157,-4.94501 v -0.26458 c -1.1443,0.25541 -2.24257,0.67699 -3.175,1.40866 -0.51663,0.40539 -1.06867,1.23404 -1.74306,1.36946 -0.774987,0.15563 -2.022537,-0.90863 -2.754847,-1.17225 -0.69283,-0.24938 -1.44556,-0.0973 -2.11667,-0.37606 -2.22397,-0.92357 -3.646878,-3.63002 -4.497918,-5.72773 h -0.79375 m -3.43958,1.05833 -0.52917,0.26459 h -0.26458 l 0.8403,3.43958 -0.31113,2.38125 -0.79375,-1.05833 h -0.26459 l 1.32292,1.32291 0.52917,-2.64583 c 2.07913,0.77014 3.13912,-0.17735 3.175,-2.38125 h -0.26459 c -0.0916,1.92855 -1.9,3.28835 -3.27299,1.30208 -0.62825,-0.90886 0.0208,-1.7206 -0.16659,-2.625 m 18.785405,3.175 v 0.26459 l 8.73126,-3.175 c -2.59515,-1.25319 -6.29411,2.10022 -8.73126,2.91041 m -72.760405,11.37709 c 2.74225,0.28092 6.31796,-2.46334 8.73125,-3.63925 2.91213,-1.41899 6.27151,-1.54442 9.26041,-2.81978 2.51087,-1.07136 4.25973,-3.13251 6.61459,-4.42442 2.3247,-1.27534 6.17897,-0.59153 7.40833,-3.40405 l -3.70417,0.93339 -2.64583,0.58428 -2.11667,1.1404 -4.49791,1.40377 -3.175,2.4229 -6.08542,1.8974 -5.55625,3.10028 -4.23333,2.80508 m 31.48541,-14.02292 c -1.64289,2.18833 -4.88493,1.73898 -7.14375,2.99126 -2.08066,1.15351 -3.67399,2.99087 -5.82083,4.06428 -2.67878,1.33939 -5.68525,1.49171 -8.46666,2.48538 -3.09902,1.10714 -5.93503,2.98396 -8.99584,4.21741 l 3.96875,-2.7181 5.29167,-2.82591 5.02708,-1.4503 3.70539,-2.63236 4.76128,-1.54096 2.11666,-1.15878 5.55625,-1.43192 m 67.204165,0.52917 0.26459,0.26458 -0.26459,-0.26458 m -59.795825,0.2641 2.91041,9.78958 h 0.26459 c -0.0327,-2.68015 -1.1863,-4.28874 -2.25141,-6.61458 -0.46512,-1.01567 -0.43691,-2.20358 -0.92359,-3.175 m -41.275,2.11667 3.43958,1.98928 3.96875,0.65655 c -0.39279,1.71795 -2.37673,4.06907 -3.96875,4.7625 -0.86466,-2.12775 -4.58203,-5.01762 -3.43958,-7.40833 m 54.85695,0.97012 0.0882,0.17641 -0.0882,-0.17641 m 114.476375,0.61738 v 0.26458 l 4.49792,0.79375 -4.49792,-1.05833 m -100.541657,2.38125 c -1.51676,2.06302 -5.09742,2.55378 -7.408338,3.43958 1.667138,-1.80801 5.041248,-2.91768 7.408338,-3.43958 m 59.795827,4.7625 v 0.26458 l 3.96875,-1.85208 c -1.0864,-2.11336 -2.88374,0.82942 -3.96875,1.5875 m -140.229165,-2.38125 -1.05833,1.05833 1.05833,-1.05833 m 180.181245,0 v 0.26458 l 1.5875,1.05833 c 1.18252,-1.32647 1.76146,0.0973 3.175,0.26459 v -0.26459 l -1.88761,-1.13549 -2.87489,-0.18742 m -52.12291,1.85208 v 0.26458 l 5.02831,-1.23962 2.6446,0.71168 1.95008,1.07915 0.69576,2.88838 c -1.59945,0.18338 -3.23891,1.85841 -1.32292,2.91041 v 0.52917 c -1.21357,0.6684 -0.79895,1.21788 -0.5255,2.38125 0.41404,1.7615 1.36303,3.17792 1.58383,5.02708 -1.77628,0 -3.52286,0.16449 -5.29166,0.28051 -0.71645,0.047 -1.65943,0.42699 -2.32368,0.0122 -1.18855,-0.74209 -0.60602,-3.93045 -0.32216,-5.05525 l 1.5875,0.26459 c -0.49671,-1.80781 -3.79321,-2.81602 -5.29166,-3.79359 -1.56192,-1.01899 -3.18956,-2.36284 -4.87153,-3.15295 -1.8238,-0.85675 -4.28163,-0.97604 -6.24097,-1.48706 -1.2201,-0.3182 -2.9636,-1.20209 -4.23334,-0.93461 -1.59468,0.33591 -3.41587,2.10644 -4.7625,3.01821 -1.06626,-1.83021 -2.41308,-0.32792 -3.96875,-0.26459 0.71357,0.97212 1.30636,0.0251 2.1522,-0.25967 0.5403,-0.1819 1.04999,0.0814 1.55197,0.25967 l -4.49792,3.43959 -2.11666,2.11666 c -1.76517,-0.29838 -2.62756,1.59141 -2.91654,3.175 -0.1309,0.71727 0.12532,1.94081 0.88928,2.24896 0.65526,0.26429 1.6682,-0.18084 2.29184,-0.39688 v 1.85209 l -12.43542,0.26458 0.52917,-1.85208 c 1.54323,0.47323 2.16714,0.25283 2.64583,-1.32292 l -1.11468,1.05343 -2.3249,0.53407 -0.52917,-0.26458 -1.5875,-1.85209 1.85208,-2.11666 1.81044,0.005 1.62915,2.37634 c -0.39704,-0.98993 -1.51833,-4.66635 -2.91042,-2.38125 -1.07044,0.0182 -2.9686,1.25065 -2.3886,2.60541 0.39874,0.93136 1.26638,1.34044 1.59485,2.42167 l 0.26458,-0.52917 h 0.26459 v 1.5875 l -16.668745,3.06477 -11.64167,0.90398 0.79375,-2.38125 -0.26458,-1.32291 0.79375,-0.26459 v -0.26458 l -2.11667,2.11667 c -0.008,-2.08253 -0.59258,-4.08081 -3.175,-3.43959 -1.03404,-1.74621 -4.71476,-2.67964 -5.02708,0 l -1.05834,-0.26458 v 2.11667 h -1.32291 l -0.26459,4.23333 -6.35,-0.26458 v 0.26458 h 2.11667 v 0.26458 l -6.35,0.52917 v 0.26458 l 8.20208,-0.77782 21.96042,-0.54509 v -0.26459 h -3.96875 v -0.26458 h 7.14375 v 0.26458 l -7.14252,2.12768 -2.60664,-0.92113 -1.09876,1.70387 h -0.26458 c -0.0522,-1.09518 -0.69998,-2.53721 -2.07624,-1.83002 -0.64875,0.33334 -0.89106,1.05772 -1.64508,1.24328 -1.26734,0.3119 -2.67667,-0.16722 -3.9516,-0.20701 v 0.52917 h 1.32292 v 0.26458 h -1.5875 v 0.26458 l 7.40833,0.52426 7.14376,-0.75699 7.14375,-0.0318 -3.96875,2.64583 c 3.25734,-2.05296 7.001018,-2.97963 10.583328,-4.34235 3.946827,-1.50138 8.190117,-3.66459 12.435407,-4.08878 3.22013,-0.32177 6.33723,0.39414 9.52501,0.49363 l 0.26458,1.5875 -0.79375,1.32292 -7.40834,-0.26458 v -0.26459 c 0.19604,-0.009 0.59055,0.0214 0.8011,-0.0576 1.98749,-0.74532 -1.17141,-2.45002 -2.15218,-1.13919 -0.4501,0.60158 -0.11766,2.02971 -0.23642,2.78426 1.92587,-1.14715 3.44245,-0.43304 5.55626,-0.305 1.23472,0.0748 2.45128,-0.30407 3.70416,-0.22416 1.86549,-2.20894 4.89909,-1.63327 7.40834,-1.58873 5.40174,0.0959 11.03055,0.80244 16.13958,-1.06812 1.6238,-0.59454 4.15267,-1.02519 5.02708,-2.63482 h 0.26459 c 0.43414,1.64701 2.19351,0.77939 3.43958,0.52917 l 0.26458,2.91041 -4.49791,0.0698 -4.49792,1.28494 -6.08542,1.02648 v 0.26459 l 10.84792,-2.27102 4.49792,-0.11023 c -1.87857,2.7517 -5.09163,3.10451 -7.67292,4.8164 -1.6327,1.08279 -3.10205,3.45102 -5.02708,3.97731 -0.57201,0.15639 -1.26934,-0.0253 -1.85209,-0.0625 -0.16812,-1.21592 -2.70911,-0.85804 -3.70416,-0.75823 -1.09641,0.10998 -2.09194,0.62668 -3.175,0.7374 -1.16785,0.1194 -2.28333,-0.19558 -3.43959,-0.23885 -2.05808,-0.077 -4.04625,0.1227 -6.08541,0.25968 v 0.26458 l 5.02708,-0.26336 5.29167,0.24744 5.82083,-0.77783 v 0.26458 l -0.79375,0.26459 c 2.23953,1.70781 4.45294,-0.37433 6.08542,-1.81779 2.28178,-2.01759 4.87026,-2.80993 7.40833,-4.38154 1.0542,-0.65277 1.85744,-2.06934 2.94594,-2.5405 0.77783,-0.33669 1.85459,0.42838 2.61031,0.63451 1.53787,0.41948 3.33833,0.58351 4.76127,1.32292 1.05293,0.54715 1.68052,1.46612 2.91165,1.68182 2.9092,0.50974 6.1009,-0.40104 8.99583,-0.68473 1.35311,-0.1326 2.88519,-0.14117 4.23333,0.0331 1.03271,0.13348 2.12946,0.51732 3.175,0.38218 2.32363,-0.30033 4.48393,-1.70302 6.61459,-2.56744 v -0.26459 l -6.35,2.39718 -3.175,-0.24498 -4.49792,-0.0306 -8.20208,0.75331 -3.43959,-1.76021 -5.55625,-1.37926 v -0.26458 c 2.36673,0 4.89276,0.26649 7.14375,-0.62104 3.77616,-1.48888 6.90087,-4.19315 11.1125,-4.6351 3.61919,-0.37979 7.50713,-0.28653 11.1125,-0.0515 1.24445,0.0811 2.59135,-0.24469 3.81319,0.0122 2.70103,0.56802 4.99671,2.44972 7.82848,2.64951 v -0.26458 l -7.14375,-2.38125 v -0.26458 l 7.14375,-0.52917 0.26458,-1.32292 -0.79375,-0.52916 0.79375,0.26458 1.5875,-1.85208 2.38125,2.91041 h 0.26459 l -0.26459,-3.17499 1.05834,3.17499 -0.26459,-2.91041 2.64584,-0.52917 v -0.26458 l -4.7625,0.26458 v 0.52917 l -3.70417,0.52916 h -0.26458 l 0.52916,2.64584 -6.87916,0.52916 1.05833,-2.91041 h -0.26458 l -0.26459,1.32291 h -0.26458 l -0.26458,-1.85208 h 1.85208 v -0.26458 l -5.55625,0.79375 c 0.35192,-1.46818 0.53143,-2.05653 1.85208,-2.91042 l -0.52916,-2.11666 c -1.18796,0.5679 -1.02866,1.43172 0.26458,1.5875 v 0.26458 l -3.96875,3.70416 c 0.67425,-1.87159 1.0847,-3.43972 0.1519,-5.29166 -0.40176,-0.79761 -1.62676,-2.60763 -2.56377,-1.26412 -1.90733,2.7348 1.3184,5.5301 1.35354,8.40787 h 0.26458 l -0.26458,-5.02708 -0.79375,0.52916 h -0.26459 v -4.23333 c 1.92603,0.71811 2.63931,2.8376 2.64584,4.7625 l -1.05834,-0.52917 v 5.02708 l -2.91041,-0.52916 v 0.26458 h 1.32291 v 0.26458 l -3.175,0.25847 -5.55625,0.23886 -9.525,4.26517 c 0.70227,-2.78271 -0.85679,-3.68212 -3.4555,-3.68212 -3.4853,0 -6.90532,0.64857 -10.30283,1.30087 v -1.05833 l 12.7,-1.32292 v -0.26458 l -4.23333,0.52917 -1.65979,-6.08542 0.60145,-1.85208 c -1.73471,-1.3948 0.49799,-1.58314 1.06568,-2.73159 0.27817,-0.56269 -0.2931,-1.03244 -0.13474,-1.57035 0.18137,-0.61604 1.20435,-0.98601 1.7149,-1.25431 v -0.26458 l -1.5875,0.52916 -2.11667,-1.53359 -2.91042,-0.9824 -1.85208,0.60757 -3.43958,0.85009 m 51.32916,-1.5875 -0.79375,2.11667 0.79375,-0.26459 0.52917,-1.85208 h -0.52917 m -35.18958,1.32292 c 1.165,-0.30272 1.66308,-0.20405 2.38125,0.79375 2.26404,-0.17163 2.42506,1.81364 2.91042,3.43958 -1.69985,-0.52242 -3.63153,-0.32695 -4.23334,1.5875 0.56378,0.30909 1.34852,0.65929 0.52917,1.05833 v 0.26459 l 1.32292,-0.26459 v -0.52916 l -1.5875,-0.79375 v -0.26459 l 2.11666,-0.52916 c 1.27764,-1.00516 1.82077,0.46964 1.32292,1.5875 1.52203,-0.39606 0.99435,-1.4427 0.78028,-2.64584 -0.10448,-0.58724 0.087,-1.2257 -0.22172,-1.76756 -0.76141,-1.33629 -4.21743,-3.62394 -5.32106,-1.9366 m -16.66875,0 -0.26458,0.52916 h 0.52916 l -0.26458,-0.52916 m -6.08542,2.91041 h 0.26459 c 0.50906,-2.18472 1.8612,-2.00117 3.43958,-1.05833 l 0.52917,-1.05833 h 0.52916 c 0.39182,0.72766 0.86071,0.93993 1.05834,0 l -2.11667,0.52916 c -1.56434,-0.99018 -3.99914,-0.79995 -3.70417,1.5875 m 56.09167,-2.11666 v 1.05833 l -2.11667,-0.52917 0.26459,1.32292 c -1.91917,0.64715 -1.78113,1.33361 -0.79375,2.91042 l -0.79375,0.26458 v 0.52917 l 0.79375,0.26458 -0.79375,1.5875 1.5875,0.26458 -0.52917,2.64583 1.85208,-0.52916 v -0.26458 -0.26459 l -1.5875,0.79375 0.52917,-2.64583 -1.5875,-0.26458 v -0.26459 l 1.05833,-1.05833 -1.05833,-0.26458 v -0.52913 l 1.05833,-0.26458 v -0.52917 c -1.2453,-1.02781 -0.77695,-1.53687 0.52917,-2.11667 l -0.26458,-1.32291 2.11666,0.52916 -0.26458,-1.32291 m -20.37292,1.85208 -0.26458,1.5875 0.52917,-1.32292 2.38125,0.52917 1.5875,-0.79375 c 0.71807,-0.80867 1.09437,-0.79569 2.11666,-0.52917 l 2.64584,-0.26458 0.52916,1.05833 3.03414,0.62227 0.93461,1.75898 c -0.43091,-2.24445 -1.50215,-3.4275 -3.96875,-2.91041 -1.59877,-2.71529 -5.31476,-0.26667 -7.40833,0.24743 -0.67058,0.16467 -1.4307,0.0251 -2.11667,0.0171 m -45.50833,-1.32292 9.525,2.30653 9.525,5.63097 v 0.26459 l -7.9375,-1.32292 -0.79375,0.52917 v 0.79375 l 7.67292,0.52916 -0.52428,3.96875 -0.13106,2.34083 -1.9905,1.31066 -5.55625,1.90476 v -1.85208 h 4.23334 v -0.26459 h -4.23334 v -5.02708 l 0.52917,-2.64583 -0.52917,-0.79375 h -0.26458 v 8.46666 h -0.52917 l -0.26458,-7.40833 h -0.26458 l 0.26458,7.40833 h -3.70417 v -8.73124 h -0.26458 l -0.52917,1.85208 v 0.26458 l 0.52917,2.38125 -0.26458,5.82083 h -4.7625 l 0.23518,-1.72592 4.52732,-0.39074 -0.26459,-6.08542 h -3.96875 v -0.26458 h 3.96875 v -0.26458 l -9.26041,0.26458 v -1.58745 h 5.29166 v -0.26458 h -5.02708 v -0.26459 l 7.9375,-0.48874 4.7625,1.01791 v -0.26458 l -4.49792,-1.04242 -8.99583,0.51325 0.26458,9.26041 h -4.23333 v -8.73124 h -0.26458 l -0.79375,0.79375 3.175,-2.38125 v -0.79375 l -4.23334,2.64583 3.175,-2.55763 7.67292,-4.8507 -2.11667,1.80799 -4.49791,2.68992 v 0.79375 l 0.52916,-0.79375 c 2.34303,-0.23209 5.40476,-3.01611 6.87917,-4.7625 m 0.79375,0.52917 v 0.26458 l 10.31875,6.08542 v -0.26458 l -5.82083,-3.54861 -4.49792,-2.53681 m -1.05833,0.26458 v 0.26459 l 6.08541,3.81318 4.49792,2.53682 v -0.26459 l -5.82083,-3.61841 -4.7625,-2.73159 m 38.62916,0.52917 v 0.26458 c 1.65168,0.11094 3.86309,0.049 3.96875,2.11667 0.74542,-0.57883 0.19309,-1.6578 -0.56958,-2.09952 -0.82999,-0.48069 -2.51214,-0.49415 -3.39917,-0.28173 m -50.53541,2.91042 0.79375,-0.26459 0.79375,-1.5875 v 0.52917 l 1.05833,-0.26458 c -1.64422,-0.82671 -2.20053,0.0405 -2.64583,1.5875 m 13.49375,1.32291 v -2.91041 c -0.76356,0 -2.14561,-0.25984 -2.78426,0.23519 -0.64189,0.49754 -0.62262,2.43141 0.19599,2.75729 0.70332,0.27999 1.83184,-0.0728 2.58827,-0.0821 m -0.26459,-2.64583 -0.26458,2.38125 h -2.38125 v -2.11667 l 2.64583,-0.26458 m 44.45,0.26458 -0.26458,1.05834 0.26458,-1.05834 m -69.32083,2.11667 c -1.38946,-0.559 -3.44552,-1.52575 -3.96875,0.52917 l -2.895717,1.49929 -2.57601,0.78396 -1.42459,1.38293 -4.216178,0.22172 -2.91042,0.34543 3.01944,0.0796 4.602028,-0.3148 1.64507,-1.59974 2.323677,-0.64431 3.76052,-2.625 2.33592,0.5071 1.40376,-0.93828 1.54464,0.0723 1.32536,-0.62227 c 0.73655,1.31562 1.99681,0.0835 3.175,0.0576 1.00126,-0.022 2.17609,0.3103 3.175,0.4716 -1.72368,-1.31617 -3.60837,-0.36038 -5.48765,-0.34543 -1.73443,0.0138 -3.86548,-0.75431 -4.8311,1.13918 m 66.41042,0.52917 -0.26459,-0.79375 0.26459,-0.26459 2.38125,-0.79375 c -0.81507,-0.27256 -3.78106,0.80225 -2.38125,1.85209 m 16.66875,-1.85209 1.07303,1.35231 0.24988,3.93936 0.79375,-2.38125 -0.79375,-0.26458 c 0.33272,-1.40837 -0.17983,-1.89491 -1.32291,-2.64584 m -72.49584,0.26459 v 0.52916 h 0.79375 v -0.52916 h -0.79375 m -39.422915,0.52916 c -2.49597,1.61037 -5.35213,1.32292 -8.20208,1.32292 -4.7254,0 -9.79443,-0.442 -14.2875,1.32292 v 0.26456 c 2.19801,-0.422 4.38167,-1.06772 6.61458,-1.28739 2.08293,-0.20493 4.2575,-0.0355 6.35,-0.0355 3.27228,0 6.91655,0.53072 9.78959,-1.32291 l -0.26459,-0.26459 m 86.254165,1.05834 0.50711,2.11666 -0.41034,2.11667 0.69698,1.5875 -3.175,0.79375 v 0.26458 l 5.82084,-1.03627 3.43958,0.77169 v -0.26459 l -1.5875,-0.26458 v -0.26458 l 4.7625,0.26458 -2.91042,0.52917 v 0.26458 l 4.23334,-0.6737 3.43958,0.40912 v -0.26459 l -4.23333,-0.52916 c 0.0992,-0.53731 0.34318,-1.23633 0.0245,-1.74308 -0.40152,-0.63848 -2.85381,-1.80409 -0.84151,-2.30651 l 0.81702,-0.18374 -1.32292,-1.32292 0.52917,1.05833 c -2.49183,0.43483 -0.63065,2.40329 0.79375,2.91042 l -0.26459,1.5875 c -2.0682,-0.52197 -4.4925,-0.51281 -6.61458,-0.34297 -1.00835,0.0807 -2.36643,0.29681 -2.98759,-0.73741 -0.47845,-0.79657 0.1834,-1.54879 0.2303,-2.3592 0.0506,-0.87495 -0.43882,-1.71587 -0.94688,-2.38125 m -33.07291,1.32291 v 0.26459 h 4.23333 l -4.23333,-0.26459 m 12.17083,0.26459 v 0.26455 h -1.05833 l 1.05833,-0.26458 m -4.7625,0.26458 0.26458,0.79375 h 0.26459 l -0.52918,-0.79375 m 43.39167,0.26458 v 0.52917 h -0.52917 v -0.52917 h 0.52917 m -61.38334,4.7625 h -1.05833 v 0.26458 h 1.05833 l -0.52916,0.52917 v 0.26458 l 0.79375,2.11667 -0.79375,0.26458 0.52916,1.5875 h -0.26458 c -0.38112,-1.49675 -1.61393,-1.25379 -2.91042,-1.33883 -2.29147,-0.1503 -4.56842,-0.3843 -6.87917,-0.23274 -5.56969,0.3653 -10.838547,3.9322 -16.139577,5.4313 -1.685548,0.47667 -3.302398,0.10902 -5.027078,0.10902 -2.4864,0 -4.92622,0.26459 -7.40833,0.26459 v -0.26459 l 12.435408,-4.00182 15.610417,-2.59684 9.525,-0.0159 v -2.64583 l -3.43958,0.52916 -0.26459,-2.38125 1.32292,-0.79375 -0.26458,-1.58749 c 0.78751,0.0149 2.10033,-0.19184 2.78424,0.23885 1.28776,0.81095 0.91992,2.9824 0.91992,4.25906 m 0.17639,-4.05695 -0.0882,0.17641 0.0882,-0.17641 m -100.718045,5.37985 v 0.26458 l 18.52083,-5.02708 -4.49792,0.54877 -8.73125,2.53681 -5.29166,1.67692 m 180.710405,-2.91042 -1.85208,-1.5875 1.05833,-0.26458 0.79375,1.85208 m -70.90833,-1.5875 -0.26458,1.05833 0.79375,-0.52916 -0.26459,5.29166 -3.70416,0.26459 0.26458,-1.05834 -1.05833,0.52917 0.26458,-5.55625 h 3.96875 m 59.00208,0.26458 c -0.32582,1.35667 0.4688,2.95935 -1.32291,3.175 v -3.175 h 1.32291 m 10.58334,0 0.52916,0.52917 -0.52916,-0.52917 m -112.977085,1.5875 2.11667,-0.79375 c -0.69593,-0.89619 -1.72388,0.006 -2.11667,0.79375 m 48.154165,-1.32291 0.26458,4.49791 -1.05833,-0.52916 0.79375,1.32291 h -3.96875 l 0.39075,-5.05647 3.578,-0.23519 m 50.8,0 -0.26458,0.26458 0.26458,-0.26458 m 1.32292,0.79375 h 0.26458 v -0.79375 h 0.26458 l -0.26458,2.91041 c -0.39941,0.0755 -0.90647,0.25764 -1.31557,0.21314 -2.38763,-0.25979 0.56179,-4.56607 1.05099,-2.3298 m -55.82709,-0.52917 2.91042,3.70417 -2.91042,-3.70417 m 58.20834,0 v 1.05833 h -0.26459 l 0.26459,-1.05833 m 11.1125,0 0.26458,0.26458 -0.26458,-0.26458 m -70.90834,0.26458 -2.64583,3.96875 h 0.26458 l 2.38125,-3.96875 m 55.03334,0 c -0.0322,0.90166 0.91058,2.21189 -0.52917,2.38125 l 0.26458,-0.79375 -1.32291,0.79375 v -1.85208 h 0.52916 v 1.05833 l 0.52917,-1.05833 -0.26458,0.26458 0.79375,-0.79375 m -98.954165,0.52917 -0.52917,1.32292 1.32292,-1.05834 -0.79375,-0.26458 m -6.08542,4.23333 3.43959,-1.85208 v -1.05833 h 1.85208 c -1.1368,-1.52428 -3.10924,1.23817 -4.01897,1.90476 -0.49485,0.36257 -0.87045,0.53818 -1.2727,1.00565 m -2.38125,0.26459 v 0.26458 c -0.89869,1.24589 -0.0767,2.22315 0.52917,3.43958 l -11.1125,0.52917 0.26458,-2.11667 v -1.85208 h 1.32292 v -2.11667 l 1.05833,0.52917 c 0.29907,-1.45375 1.23978,-2.35305 2.85897,-1.72224 0.56618,0.22057 0.8416,0.83822 1.39519,1.1012 0.65277,0.31011 1.41454,0.0578 2.04439,0.36014 0.61428,0.29481 1.12878,1.12509 1.63895,1.58382 m 42.068745,-2.91042 -0.26458,0.26458 0.26458,-0.26458 m 29.63334,0.79375 v 1.32292 h -0.26459 l 0.26459,-1.32292 m -28.75139,0.44096 0.0882,0.17641 -0.0882,-0.17641 m 42.7743,2.99862 -1.05833,0.79375 0.79375,-0.26458 v 0.26458 l -6.08542,0.30012 -2.74382,-0.006 -0.43118,-2.14606 h -0.26458 v 2.38125 c -0.90003,-0.79241 -0.73863,-1.53117 -0.52917,-2.64583 l 1.84106,-0.9481 5.56728,-0.11024 2.32367,0.39074 0.58674,1.99051 m -10.31875,-1.85208 -0.26458,0.26458 0.26458,-0.26458 m -1.32291,0.26458 -0.26459,0.26459 0.26459,-0.26459 m -20.90209,0.26459 v 1.85208 l -4.23333,-0.79375 c 1.58423,1.5157 5.06416,1.32292 7.14375,1.32292 v 0.26458 l -5.55625,0.26336 -3.96875,-0.18987 -3.70417,1.24943 1.05834,-3.175 c 1.38119,0 4.0203,0.55462 4.7625,-0.79375 h 4.49791 m 19.84375,0 -0.26458,0.26458 0.26458,-0.26458 m -4.23333,0.26458 0.26458,0.26458 -0.26458,-0.26458 m 51.06458,0.26458 v 0.26459 l 7.40834,1.32291 -7.40834,-1.5875 m -71.17291,0.26459 0.26458,0.26458 -0.26458,-0.26458 m 14.02291,2.11666 h -5.55625 c 0.71259,-0.53259 1.06705,-1.40836 1.71245,-1.88147 0.63025,-0.46204 3.09935,-0.4991 3.60862,0.15555 0.34429,0.44259 0.23306,1.20477 0.23518,1.72592 m 0.52917,-2.11666 v 1.85208 h -0.26458 l 0.26458,-1.85208 m -62.706245,1.32291 v 0.52917 h -0.52917 l 0.52917,-0.52917 m 35.983325,0.52917 v 0.52917 h -2.64583 c 0.5665,-1.02919 1.63085,-0.8597 2.64583,-0.52917 m 20.37292,0 -0.26458,0.26458 0.26458,-0.26458 m 25.66458,0 v 0.26458 h -3.70416 l 3.70416,-0.26458 m -4.23333,0.35279 c 0.20462,0 0.0424,0.13171 -0.0882,0.0882 l 0.0882,-0.0882 m 33.60208,0.17638 v 0.26458 l 7.14375,0.52917 -2.11666,-0.30011 -5.02709,-0.49364 m -77.25833,0.26458 v 0.52917 h -0.52917 l 0.52917,-0.52917 m 75.40625,0 v 0.26458 h 1.5875 l -1.5875,-0.26458 M 7.2894754,182.9491 v 0.26459 H 17.872805 l -3.43958,-0.26459 H 7.2894754 m 10.8479096,0.26459 v 0.26458 l 16.13959,0.49732 12.96458,-0.23274 v 0.52917 H 6.7603054 v 0.26458 h 25.3999996 6.35 l 2.91042,0.52917 4.23333,-0.3736 7.9375,-1.44295 5.82083,-0.0355 -2.91042,-0.26459 -8.20208,0.7423 -30.1625,-0.47771 m 178.064585,0 v 0.26458 l 8.20208,0.26458 c -2.22315,-1.07356 -5.76365,-0.52916 -8.20208,-0.52916 m -118.797915,2.38125 -2.38125,-0.26459 c 0.52841,-1.59115 2.01691,-1.22773 2.38125,0.26459 m 2.91041,-0.26459 -1.85208,0.26459 c 0.3128,-1.2721 1.19416,-1.38839 1.85208,-0.26459 m -27.51666,-0.79375 v 0.26459 h 2.38125 l -2.38125,-0.26459 m -11.64167,1.05834 v 0.26458 l 5.29167,0.22906 5.82083,-1.02281 -4.23333,0.46425 -6.87917,0.0649 m 94.720835,-0.79375 v 0.26458 h 1.05833 l -1.05833,-0.26458 m -100.012495,1.32291 v 0.26459 l 5.29166,-1.05834 -5.29166,0.79375 m 89.693745,1.5875 v 0.26459 l 10.05416,-2.64584 -3.175,0.29889 -6.87916,2.08236 m -62.970835,-1.85208 v 0.26458 l 6.87917,-0.26458 c -1.81112,-0.87459 -4.92813,-0.23164 -6.87917,0 m 12.17083,0.52917 -2.91041,-0.26459 c 0.85198,-0.54599 2.28405,-0.59842 2.91041,0.26459 m 6.08542,-0.79375 -0.26458,0.26458 0.26458,-0.26458 m 9.525,0 v 0.26458 h -5.02708 l 5.02708,-0.26458 m -12.96458,0.52916 v 0.26459 l -2.38125,-0.26459 h 2.38125 m 2.64583,-0.26458 v 0.26458 h -0.79375 l 0.79375,-0.26458 m -26.9875,0.26458 v 0.26459 h 2.38125 l -2.38125,-0.26459 m 2.64583,0 0.26459,0.26459 -0.26459,-0.26459 m 5.29167,0 v 0.26459 h 1.32292 l -1.32292,-0.26459 m 16.93333,0.0882 c 0.20463,0 0.0424,0.13171 -0.0882,0.0882 l 0.0882,-0.0882 m -43.39166,0.17638 v 0.26458 h 1.05833 l -1.05833,-0.26458 m -1.05833,1.05833 0.79375,-0.52917 v -0.26458 h -12.7 l -14.2874996,0.26458 v 0.26459 l 24.0770796,0.006 2.38125,0.50221 5.28677,0.0417 3.70906,0.50833 v -0.26458 h -1.5875 v -0.26459 l 11.1125,-1.05833 -5.29167,0.51324 -13.49374,0.28051 m 23.01874,-1.05833 v 0.26458 h 4.23334 l -4.23334,-0.26458 m 25.40001,2.38125 -7.67292,0.26949 -19.57917,-0.005 0.79375,-0.79375 -1.32292,-0.26458 -0.52916,1.05833 10.84791,0.26458 15.34584,0.26459 c -0.0978,1.00846 0.36123,1.26475 1.32291,1.05833 l 0.26459,1.05833 -6.08542,0.26459 v 0.52916 l 5.55625,1.32292 v 0.26458 l -5.29167,0.26459 v 0.26458 l 5.55625,-0.52917 v -0.52898 l -5.02708,-1.5875 c 6.09325,0 12.14058,0.79375 18.256248,0.79375 2.57142,0 5.46373,0.66176 6.349997,-2.38125 h -0.26458 c -1.089537,2.23537 -2.825887,2.11666 -5.027077,2.11666 -3.095538,0 -6.161038,-0.26458 -9.260418,-0.26458 -1.92278,0 -4.37788,0.40111 -4.49792,-2.11667 h 9.525 v -0.26458 h -3.96875 v -0.26458 l 12.699998,-1.32292 v -0.26458 h -5.02708 v 0.26458 h 0.52917 v 0.26458 l -10.847918,0.26459 c -0.25348,-2.20194 -3.1214,-2.24471 -2.64583,0 m 2.38125,0 -2.38125,-0.26459 c 0.53992,-1.63061 2.01065,-1.26736 2.38125,0.26459 m 16.404155,-1.05834 c -0.12913,0.98807 -1.270337,0.80851 -2.116657,0.95544 -2.35753,0.40929 -4.748,0.89665 -7.143748,0.89665 v 0.26458 l 9.524985,-1.05833 c -0.17985,0.83389 -0.0357,3.15181 0.49977,3.84259 0.70014,0.90326 2.49341,0.408 2.93982,-0.40301 h 0.26458 v 0.79375 h 3.175 v -2.64583 h 0.26458 l 0.26459,2.64583 h 2.91041 v -1.5875 l 1.32292,1.5875 h 0.26458 l 0.52917,-1.85208 -0.26458,-1.5875 3.43958,-0.26459 -2.91042,0.52917 v 0.26458 h 2.91042 l -1.05833,1.05834 1.32292,0.26458 -0.26459,1.5875 c 2.96907,-0.0363 4.29305,-0.9491 4.49792,-3.96875 l 2.91042,-0.52917 v -0.26458 h -2.91042 -0.26458 c -0.62456,1.13465 -2.49995,1.04364 -3.70417,1.05833 v -0.26458 l 3.43958,-0.52917 v -0.26458 l -13.22917,0.0159 -5.82083,0.77783 -0.79375,-1.32292 m -55.650685,0.35279 0.17639,0.0882 -0.17639,-0.0882 m 79.198605,-0.0882 v 0.26458 h 1.05833 l -1.05833,-0.26458 m -77.258335,0.26458 v 0.26458 h 5.82084 l -5.82084,-0.26458 m 69.585415,0.26458 c -0.85289,1.30403 -3.1261,0.70626 -4.49792,0.79375 l 0.52917,2.38125 h -0.26458 l -0.26459,-1.5875 h -0.26458 v 1.05834 h -0.52917 l 0.52917,-1.85209 -1.05833,0.79375 -0.26459,-0.79375 h -6.61458 l 5.29167,-0.79375 h 7.40833 m -26.458325,0.35279 c 0.20463,0 0.0424,0.13171 -0.0882,0.0882 l 0.0882,-0.0882 m -6.87917,0.17638 c 1e-5,0.92688 1.86251,0.52917 2.64584,0.52917 v 0.26458 h -4.49792 v -0.52917 l 1.85208,-0.26458 m 2.91042,0 v 0.26458 h -2.11667 l 2.11667,-0.26458 m 1.05833,0 -0.26458,0.26458 0.26458,-0.26458 m 2.38125,0 v 0.26458 h -2.11666 l 2.11666,-0.26458 m 30.956245,0.26458 c -0.61022,1.12629 -2.23642,1.24129 -3.43958,1.32292 0.36467,-1.38344 2.1923,-1.284 3.43958,-1.32292 m -39.687495,0.26459 v 1.05833 l -1.05833,-0.26456 v -0.52917 l 1.05833,-0.26458 m 23.018745,0 v 0.26458 h -2.11667 l 2.11667,-0.26458 m 2.55764,0.17638 -0.0882,0.17641 0.0882,-0.17641 m -25.047215,0.35278 -0.26459,0.26459 0.26459,-0.26459 m 22.754155,0 v 1.05834 h -2.64583 v -1.05834 h 2.64583 m 0.52917,0 v 1.05834 h -0.26458 l 0.26458,-1.05834 m 1.32292,0 0.52916,1.32292 h 0.26459 v -1.32292 h 0.79375 c -0.017,0.79199 0.0143,1.14977 -0.79375,1.32292 v 0.26458 h 0.79375 v 1.05834 h -2.64584 v -1.32292 h 0.79375 l 0.26459,-1.32292 m 5.02708,0.26459 c -0.62079,0.97973 -1.57069,0.79375 -2.64583,0.79375 l -0.26459,-1.05834 2.91042,0.26459 m -102.1291546,0 v 0.26458 l 11.6416596,0.52917 v 0.52916 l -7.14375,1.32292 v 0.79375 l 11.64167,0.79375 h 16.40417 v -0.26458 h -18.25625 c -2.92264,0 -6.88405,0.30873 -9.525,-1.05834 l 7.67291,-1.85208 -5.29166,-0.79866 -7.1437496,-0.25967 m 96.5729046,0 v 0.79375 h -0.26458 l 0.26458,-0.79375 m 15.08125,0 c -0.50732,1.86398 -1.59112,2.15552 -3.43958,2.38125 0.0337,-2.06347 1.62043,-2.25784 3.43958,-2.38125 m 35.71875,0 1.32292,0.79375 v 0.26458 h -6.87917 v 0.26458 h 7.9375 l -1.5875,-0.79375 v -0.26458 l 6.35,0.26458 -0.52916,0.79375 c 3.00504,1.33539 6.57708,1.03602 9.78958,1.05834 2.11457,0.0147 4.21944,0.26458 6.35,0.26458 v -0.26458 l -13.22917,-0.52917 v -0.26458 l 15.61042,-0.25968 3.44081,1.03628 7.67169,-0.51202 10.84792,0.79375 v -0.26458 c -1.51249,-0.28526 -2.98047,-0.14848 -4.49792,-0.30011 -2.67637,-0.26743 -5.21607,-0.65516 -7.9375,-0.47772 -1.79287,0.1169 -3.47447,0.56048 -5.29167,0.51202 -1.16228,-0.031 -1.83369,-0.76953 -2.91531,-0.98239 -1.79506,-0.35326 -3.98971,-0.13815 -5.81594,-0.0698 -4.25933,0.15939 -9.30881,1.05128 -13.49375,-0.005 l 1.85209,-0.52917 -4.23334,-0.28173 -4.7625,-0.24743 m -42.68611,0.35279 0.17639,0.0882 -0.17639,-0.0882 m 1.14653,0.17637 -0.26458,0.26459 v 0.26458 l 0.26458,0.26458 h 0.26458 l 0.26459,-0.26458 v -0.26458 l -0.52917,-0.26459 m 23.28333,0.26459 -0.26458,0.26458 0.26458,-0.26458 m 6.61459,0 v 0.26458 h 5.82083 l -5.82083,-0.26458 m -39.95209,0.52916 v 0.26459 c -1.17259,0.80883 -2.94464,1.38465 -3.175,-0.52917 l 3.175,0.26458 m 5.82083,-0.26458 0.26459,1.32292 h -2.11667 v -1.32292 h 1.85208 m 30.95626,0 v 0.26458 h 2.38125 l -2.38125,-0.26458 m -25.4,0.52917 0.26458,0.26458 -0.26458,-0.26458 m 0,0.52916 -2.91042,0.52917 v 0.26458 c 0.73804,0 3.36019,0.39935 2.91042,-0.79375 m 63.23541,0.52917 v 0.26458 h 1.85209 l -1.85209,-0.26458 m 2.11667,0.26458 v 0.26459 h 1.05833 l -3.43958,1.05833 v 0.26458 l 3.96875,-0.79375 -1.5875,-0.79375 m -139.699995,1.32292 v 0.26458 h 10.05416 l -3.175,-0.26458 h -6.87916 m 24.60625,0 v 0.26458 h 8.99583 l -2.91042,-0.26458 h -6.08541 m -14.2875,0.26458 v 0.26459 l 5.82083,0.79375 v 0.52916 c -7.04365,1.32844 -14.29468,0.93289 -21.43125,1.05956 -4.84577,0.086 -9.6952,0.52794 -14.55208,0.52794 v 0.26459 c 6.07787,0 12.18824,-0.29717 18.25625,-0.52426 3.1889,-0.11934 6.34894,0.0773 9.525,-0.23397 2.03593,-0.1995 4.0469,-0.0945 6.08541,-0.40913 1.15372,-0.17804 2.06743,-0.24601 2.38125,-1.47848 l -6.08541,-0.79375 m 114.564575,1.5875 c 0.93893,1.77515 5.08645,1.26073 6.87917,1.32783 5.09544,0.19069 10.30849,0.6197 15.34583,1.4748 1.7845,0.30292 4.182,0.38216 5.02709,2.22446 -11.6512,2.9879 -23.56292,1.85208 -35.45417,1.85208 v 0.26458 l 14.81667,0.52794 12.17083,-0.78761 6.61458,-0.91994 1.93293,-1.23716 -1.1404,-1.32169 -4.76128,-1.09141 -20.90208,-1.78471 v -0.2645 l 11.64167,-1.5875 -3.175,-0.004 -8.99584,1.32659 M 16.020725,198.5592 v 0.26458 l 5.29166,-0.26458 h -5.29166 m 89.429155,11.64167 v -0.26459 c -3.36819,-0.0411 -7.051177,-0.82004 -10.318747,-1.6218 -1.57365,-0.38612 -3.225248,-0.73958 -4.233328,-2.08236 6.389128,-2.57473 13.339875,-2.81185 20.108325,-3.47511 10.10859,-0.99059 20.54188,-1.13952 30.69167,-0.47772 5.45348,0.35558 10.93142,1.04241 16.40417,1.04241 -1.43197,-0.6915 -3.94435,-0.47313 -5.55625,-0.53408 -2.63631,-0.0997 -5.30109,-0.36827 -7.9375,-0.54018 -12.73185,-0.83015 -25.40055,-0.52304 -38.10001,0.5304 -3.97814,0.32998 -8.028527,0.86306 -11.906237,1.83248 -0.98239,0.24559 -3.301108,0.51085 -3.675998,1.66101 -0.43991,1.34962 2.30946,1.89181 3.146828,2.11053 3.64271,0.95142 7.601227,1.80618 11.377077,1.81901 m 0.26458,0 v 0.26458 l 9.52501,1.05833 -2.91042,-0.59654 -6.61459,-0.72637 m 9.78959,1.32291 v 0.26459 h 1.5875 l -1.5875,-0.26459 m 1.85208,0.26459 v 0.26458 c 2.53098,0.079 5.24088,0.74324 7.67292,1.43194 1.287,0.36445 2.35302,0.73332 2.91042,2.00764 l -6.35,1.05834 c 1.418,0.68474 3.84945,0.0462 5.29166,-0.4569 0.56793,-0.1981 1.51002,-0.58161 1.2482,-1.35966 -0.29883,-0.88799 -1.79363,-1.20194 -2.57111,-1.4356 -2.58456,-0.77676 -5.4971,-1.4773 -8.20209,-1.51034 m 76.46459,2.64583 v 0.26458 c 0.88529,0.0276 4.10501,0.14907 3.87198,1.58873 -0.24882,1.5372 -3.47283,1.93386 -4.66573,2.16812 -4.94239,0.97054 -10.0762,1.2968 -15.08125,1.81043 -1.61665,0.1659 -4.85909,0.20131 -5.91271,1.66222 -0.89368,1.23914 1.08395,2.08731 1.94396,2.48414 2.09307,0.96578 4.4532,1.50771 6.35,2.87122 1.71509,1.23289 1.73398,2.59222 -0.26459,3.44081 -0.51392,0.2182 -1.05657,0.38242 -1.5875,0.55367 -0.95162,0.30692 -1.92953,0.57368 -2.91041,0.77047 -12.40125,2.48789 -25.24113,2.22936 -37.83542,2.22936 -16.83911,0 -33.79371,-0.24056 -50.535415,-1.88761 -7.72273,-0.75976 -15.27508,-2.61866 -23.01875,-3.12355 -8.41944,-0.54895 -16.76702,0.77783 -25.13541,0.77783 1.10758,0.53485 2.51516,0.21998 3.70416,0.0686 1.61118,-0.20513 3.40412,-0.30317 5.02708,-0.33196 7.49373,-0.133 15.02086,-0.62469 22.48959,0.33196 3.20337,0.41031 6.33096,1.24661 9.525,1.71611 4.12369,0.60614 8.29328,0.94886 12.43542,1.35476 4.310498,0.4224 8.646745,0.29909 12.964575,0.58061 12.66751,0.82594 25.37916,0.77783 38.1,0.77783 7.19622,0 14.27324,-0.30836 21.43125,-0.77783 4.91352,-0.32226 10.44574,-0.68156 15.08125,-2.51108 0.45212,-0.17845 0.91322,-0.38538 1.31802,-0.65657 1.42004,-0.95128 1.27383,-2.25753 -0.0122,-3.26687 -1.91266,-1.50107 -4.38136,-2.19366 -6.59744,-3.10763 -0.67284,-0.27748 -2.95368,-1.09211 -2.01745,-2.13136 1.26595,-1.40524 4.51318,-1.40476 6.25079,-1.60587 5.12013,-0.5926 10.27615,-0.90605 15.34583,-1.92313 1.17617,-0.23596 3.7308,-0.60334 4.08512,-2.02847 0.49939,-2.00865 -3.18994,-2.09873 -4.3497,-2.09952 m -172.772915,0.26458 v 0.26459 l 34.925,1.84717 28.04583,-0.52426 27.516665,1.05343 9.78958,-0.25968 h -8.20208 l -18.256247,-0.80967 -20.372918,-0.24375 -17.72708,0.51935 -35.71875,-1.84718 m 10.58333,16.40417 v 0.26458 l 7.14375,-0.79375 c -1.69629,-0.81913 -5.39226,-0.0471 -7.14375,0.52917 M 9.6707254,244.59702 v 0.26458 c 12.0831196,-2.65599 24.2446996,-3.42846 36.5124996,-1.47848 6.95035,1.10476 13.731,2.97648 20.63749,4.28477 3.38672,0.64156 6.86028,1.4247 10.31875,1.42704 -1.45784,-0.70544 -3.6669,-0.62229 -5.29166,-0.86112 -3.28592,-0.483 -6.54784,-1.17959 -9.78959,-1.89373 -6.47864,-1.42721 -12.95901,-3.17292 -19.57916,-3.8242 -5.50148,-0.54125 -10.89623,-0.51115 -16.40417,-0.30502 -5.31376,0.19887 -11.39067,0.41343 -16.4041596,2.38616 M 195.6728,243.53868 v 0.26459 l 3.70417,-0.25968 4.49791,0.52426 c -2.32255,-1.35287 -5.66874,-0.69931 -8.20208,-0.52917 m -38.36458,8.73125 v 0.26459 c 9.35871,0 19.57046,0.41262 28.575,-2.55765 1.5961,-0.52648 3.19124,-1.19652 4.49791,-2.27835 1.67773,-1.38904 2.83412,-3.04151 5.02709,-3.63067 -1.94659,-0.73634 -3.58144,1.74239 -4.77843,2.87366 -1.63512,1.54539 -3.70202,2.28796 -5.80491,2.94349 -8.69858,2.71163 -18.50615,2.38493 -27.51666,2.38493 m -79.904165,-3.175 v 0.26459 l 6.08542,0.51324 13.229158,0.5402 11.377077,-0.25847 21.43126,0.54387 27.51666,1.57157 c -1.42407,-0.68768 -3.45891,-0.14643 -5.02708,-0.30011 -5.36216,-0.52545 -10.77749,-0.53288 -16.13958,-1.05833 -15.25523,-1.49492 -30.6939,-0.91626 -46.037495,-1.02281 -4.14668,-0.0288 -8.28773,-0.79375 -12.43542,-0.79375 z"
       id="path2" /></g></svg>
