<svg xmlns="http://www.w3.org/2000/svg" version="1.1" xmlns:xlink="http://www.w3.org/1999/xlink" viewBox="0 0 200 200" width="200" height="200"><metadata><rdf:RDF xmlns:rdf="http://www.w3.org/1999/02/22-rdf-syntax-ns#" xmlns:dc="http://purl.org/dc/elements/1.1/"><rdf:Description><dc:creator>RealFaviconGenerator</dc:creator><dc:source>https://realfavicongenerator.net</dc:source></rdf:Description></rdf:RDF></metadata><rect width="200" height="200" rx="40" fill="url('#gradient')"></rect><defs><linearGradient id="gradient" gradientTransform="rotate(86 0.5 0.5)"><stop offset="0%" stop-color="#000000"></stop><stop offset="100%" stop-color="#141414"></stop></linearGradient></defs><g><g fill="#e0e0e0" transform="matrix(4.6599766627771295,0,0,4.6599766627771295,15.890547284000533,133.13180956100499)" stroke="none"><path d="M4.73-14.22L4.73 0L1.31 0L1.31-14.22L4.73-14.22ZM17.99-14.22L17.99-11.57L13.72-11.57L13.72 0L10.29 0L10.29-11.57L6.10-11.57L6.10-14.22L17.99-14.22ZM19.43-14.22L23.94-14.22L27.11-4.33L30.27-14.22L34.79-14.22L34.79 0L31.35 0L31.35-3.32L31.68-10.12L28.24 0L25.98 0L22.53-10.13L22.86-3.32L22.86 0L19.43 0L19.43-14.22Z"></path></g></g></svg>